# xmcd CD database file
#
# Track frame offsets:
#	150
#	12089
#	25136
#	37172
#	46751
#	58911
#	72779
#	83641
#	99624
#	115106
#	127520
#	142478
#	154993
#	165406
#	180492
#	193552
#	205710
#	219825
#	237186
#	251654
#
# Disc length: 3458 seconds
#
# Revision: 0
# Processed by: cddbd v1.5PL3 Copyright (c) Steve Scherf et al.
# Submitted via: CDex 1.51
#
DISCID=090d8014
DTITLE=Hazy Osterwald - mit Sextett - Jetset - Entertainers, CD 4
DYEAR=1900
DGENRE=Jazz
TTITLE0=El Castellan
TTITLE1=Grazing in the grass
TTITLE2=Alter Muddy River
TTITLE3=Hazy, Hazy, Crazy, Crazy
TTITLE4=Take My Hand
TTITLE5=Oumbala-Oumbala
TTITLE6=Putz den Schmutz von der Wand
TTITLE7=Home-Town Mountain-Band
TTITLE8=New Mexico
TTITLE9=Vergiss nie deine Freunde
TTITLE10=Geh wohin du willst
TTITLE11=El Mejor
TTITLE12=Six Days On The Road
TTITLE13=My Pyjama Your Pyjama
TTITLE14=Take Your Golden Horn
TTITLE15=Sunrise
TTITLE16=All Night Long
TTITLE17=Allegro
TTITLE18=Aspen Song
TTITLE19=It's Time To Say Goodbye
EXTD=
EXTT0=
EXTT1=
EXTT2=
EXTT3=
EXTT4=
EXTT5=
EXTT6=
EXTT7=
EXTT8=
EXTT9=
EXTT10=
EXTT11=
EXTT12=
EXTT13=
EXTT14=
EXTT15=
EXTT16=
EXTT17=
EXTT18=
EXTT19=
PLAYORDER=
